<svg width="142" height="30" viewBox="0 0 142 30" fill="none" xmlns="http://www.w3.org/2000/svg">
<path d="M30 15C30 23.2842 23.2842 30 15 30C6.71576 30 0 23.2842 0 15C0 6.71576 6.71576 0 15 0C23.2842 0 30 6.71576 30 15ZM30 30C38.2842 30 45 23.2842 45 15C45 6.71576 38.2842 0 30 0V30Z" fill="#FF6733"/>
<path d="M62.14 26.36C60.74 26.36 59.44 26.1 58.24 25.58C57.04 25.04 56.02 24.31 55.18 23.39C54.34 22.47 53.72 21.41 53.32 20.21L56.32 18.95C56.86 20.33 57.65 21.39 58.69 22.13C59.73 22.87 60.93 23.24 62.29 23.24C63.09 23.24 63.79 23.12 64.39 22.88C64.99 22.62 65.45 22.26 65.77 21.8C66.11 21.34 66.28 20.81 66.28 20.21C66.28 19.39 66.05 18.74 65.59 18.26C65.13 17.78 64.45 17.4 63.55 17.12L59.35 15.8C57.67 15.28 56.39 14.49 55.51 13.43C54.63 12.35 54.19 11.09 54.19 9.65C54.19 8.39 54.5 7.29 55.12 6.35C55.74 5.39 56.59 4.64 57.67 4.1C58.77 3.56 60.02 3.29 61.42 3.29C62.76 3.29 63.98 3.53 65.08 4.01C66.18 4.47 67.12 5.11 67.9 5.93C68.7 6.75 69.28 7.7 69.64 8.78L66.7 10.07C66.26 8.89 65.57 7.98 64.63 7.34C63.71 6.7 62.64 6.38 61.42 6.38C60.68 6.38 60.03 6.51 59.47 6.77C58.91 7.01 58.47 7.37 58.15 7.85C57.85 8.31 57.7 8.85 57.7 9.47C57.7 10.19 57.93 10.83 58.39 11.39C58.85 11.95 59.55 12.37 60.49 12.65L64.39 13.88C66.17 14.42 67.51 15.2 68.41 16.22C69.31 17.22 69.76 18.47 69.76 19.97C69.76 21.21 69.43 22.31 68.77 23.27C68.13 24.23 67.24 24.99 66.1 25.55C64.96 26.09 63.64 26.36 62.14 26.36ZM76.4709 26.36C75.3709 26.36 74.4009 26.17 73.5609 25.79C72.7409 25.39 72.1009 24.85 71.6409 24.17C71.1809 23.47 70.9509 22.65 70.9509 21.71C70.9509 20.83 71.1409 20.04 71.5209 19.34C71.9209 18.64 72.5309 18.05 73.3509 17.57C74.1709 17.09 75.2009 16.75 76.4409 16.55L82.0809 15.62V18.29L77.1009 19.16C76.2009 19.32 75.5409 19.61 75.1209 20.03C74.7009 20.43 74.4909 20.95 74.4909 21.59C74.4909 22.21 74.7209 22.72 75.1809 23.12C75.6609 23.5 76.2709 23.69 77.0109 23.69C77.9309 23.69 78.7309 23.49 79.4109 23.09C80.1109 22.69 80.6509 22.16 81.0309 21.5C81.4109 20.82 81.6009 20.07 81.6009 19.25V15.08C81.6009 14.28 81.3009 13.63 80.7009 13.13C80.1209 12.61 79.3409 12.35 78.3609 12.35C77.4609 12.35 76.6709 12.59 75.9909 13.07C75.3309 13.53 74.8409 14.13 74.5209 14.87L71.7009 13.46C72.0009 12.66 72.4909 11.96 73.1709 11.36C73.8509 10.74 74.6409 10.26 75.5409 9.92C76.4609 9.58 77.4309 9.41 78.4509 9.41C79.7309 9.41 80.8609 9.65 81.8409 10.13C82.8409 10.61 83.6109 11.28 84.1509 12.14C84.7109 12.98 84.9909 13.96 84.9909 15.08V26H81.7509V23.06L82.4409 23.15C82.0609 23.81 81.5709 24.38 80.9709 24.86C80.3909 25.34 79.7209 25.71 78.9609 25.97C78.2209 26.23 77.3909 26.36 76.4709 26.36ZM93.4546 26.36C91.7946 26.36 90.3346 25.95 89.0746 25.13C87.8346 24.31 86.9646 23.21 86.4646 21.83L89.0746 20.6C89.5146 21.52 90.1146 22.25 90.8746 22.79C91.6546 23.33 92.5146 23.6 93.4546 23.6C94.2546 23.6 94.9046 23.42 95.4046 23.06C95.9046 22.7 96.1546 22.21 96.1546 21.59C96.1546 21.19 96.0446 20.87 95.8246 20.63C95.6046 20.37 95.3246 20.16 94.9846 20C94.6646 19.84 94.3346 19.72 93.9946 19.64L91.4446 18.92C90.0446 18.52 88.9946 17.92 88.2946 17.12C87.6146 16.3 87.2746 15.35 87.2746 14.27C87.2746 13.29 87.5246 12.44 88.0246 11.72C88.5246 10.98 89.2146 10.41 90.0946 10.01C90.9746 9.61 91.9646 9.41 93.0646 9.41C94.5446 9.41 95.8646 9.78 97.0246 10.52C98.1846 11.24 99.0046 12.25 99.4846 13.55L96.8746 14.78C96.5546 14 96.0446 13.38 95.3446 12.92C94.6646 12.46 93.8946 12.23 93.0346 12.23C92.2946 12.23 91.7046 12.41 91.2646 12.77C90.8246 13.11 90.6046 13.56 90.6046 14.12C90.6046 14.5 90.7046 14.82 90.9046 15.08C91.1046 15.32 91.3646 15.52 91.6846 15.68C92.0046 15.82 92.3346 15.94 92.6746 16.04L95.3146 16.82C96.6546 17.2 97.6846 17.8 98.4046 18.62C99.1246 19.42 99.4846 20.38 99.4846 21.5C99.4846 22.46 99.2246 23.31 98.7046 24.05C98.2046 24.77 97.5046 25.34 96.6046 25.76C95.7046 26.16 94.6546 26.36 93.4546 26.36ZM101.306 26V9.77H104.696V26H101.306ZM101.306 7.55V3.65H104.696V7.55H101.306ZM114.87 26.36C113.25 26.36 111.81 25.99 110.55 25.25C109.31 24.49 108.32 23.47 107.58 22.19C106.86 20.91 106.5 19.46 106.5 17.84C106.5 16.24 106.86 14.8 107.58 13.52C108.3 12.24 109.29 11.24 110.55 10.52C111.81 9.78 113.25 9.41 114.87 9.41C115.97 9.41 117 9.61 117.96 10.01C118.92 10.39 119.75 10.92 120.45 11.6C121.17 12.28 121.7 13.07 122.04 13.97L119.07 15.35C118.73 14.51 118.18 13.84 117.42 13.34C116.68 12.82 115.83 12.56 114.87 12.56C113.95 12.56 113.12 12.79 112.38 13.25C111.66 13.69 111.09 14.32 110.67 15.14C110.25 15.94 110.04 16.85 110.04 17.87C110.04 18.89 110.25 19.81 110.67 20.63C111.09 21.43 111.66 22.06 112.38 22.52C113.12 22.98 113.95 23.21 114.87 23.21C115.85 23.21 116.7 22.96 117.42 22.46C118.16 21.94 118.71 21.25 119.07 20.39L122.04 21.8C121.72 22.66 121.2 23.44 120.48 24.14C119.78 24.82 118.95 25.36 117.99 25.76C117.03 26.16 115.99 26.36 114.87 26.36ZM131.683 26.36C130.123 26.36 128.693 25.99 127.393 25.25C126.113 24.51 125.093 23.5 124.333 22.22C123.573 20.94 123.193 19.49 123.193 17.87C123.193 16.23 123.573 14.78 124.333 13.52C125.093 12.24 126.113 11.24 127.393 10.52C128.673 9.78 130.103 9.41 131.683 9.41C133.283 9.41 134.713 9.78 135.973 10.52C137.253 11.24 138.263 12.24 139.003 13.52C139.763 14.78 140.143 16.23 140.143 17.87C140.143 19.51 139.763 20.97 139.003 22.25C138.243 23.53 137.223 24.54 135.943 25.28C134.663 26 133.243 26.36 131.683 26.36ZM131.683 23.21C132.643 23.21 133.493 22.98 134.233 22.52C134.973 22.06 135.553 21.43 135.973 20.63C136.413 19.81 136.633 18.89 136.633 17.87C136.633 16.85 136.413 15.94 135.973 15.14C135.553 14.34 134.973 13.71 134.233 13.25C133.493 12.79 132.643 12.56 131.683 12.56C130.743 12.56 129.893 12.79 129.133 13.25C128.393 13.71 127.803 14.34 127.363 15.14C126.943 15.94 126.733 16.85 126.733 17.87C126.733 18.89 126.943 19.81 127.363 20.63C127.803 21.43 128.393 22.06 129.133 22.52C129.893 22.98 130.743 23.21 131.683 23.21Z" fill="white"/>
</svg>
