<svg width="178" height="36" viewBox="0 0 178 36" fill="none" xmlns="http://www.w3.org/2000/svg">
<path d="M36 18C36 27.9411 27.9411 36 18 36C8.05891 36 0 27.9411 0 18C0 8.05891 8.05891 0 18 0C27.9411 0 36 8.05891 36 18ZM36 36C45.9411 36 54 27.9411 54 18C54 8.05891 45.9411 0 36 0V36Z" fill="#FF6733"/>
<path d="M75.83 31.42C74.1733 31.42 72.6333 31.1167 71.21 30.51C69.81 29.9033 68.5967 29.0633 67.57 27.99C66.5667 26.8933 65.8317 25.6217 65.365 24.175L69.32 22.46C69.95 23.9533 70.86 25.1317 72.05 25.995C73.24 26.835 74.5817 27.255 76.075 27.255C76.915 27.255 77.6383 27.1267 78.245 26.87C78.875 26.59 79.3533 26.2167 79.68 25.75C80.03 25.2833 80.205 24.7233 80.205 24.07C80.205 23.3 79.9717 22.67 79.505 22.18C79.0617 21.6667 78.385 21.27 77.475 20.99L72.47 19.38C70.44 18.75 68.9117 17.805 67.885 16.545C66.8583 15.285 66.345 13.8033 66.345 12.1C66.345 10.6067 66.7067 9.28833 67.43 8.145C68.1767 7.00167 69.2033 6.115 70.51 5.485C71.84 4.83167 73.3567 4.505 75.06 4.505C76.6233 4.505 78.0583 4.785 79.365 5.345C80.6717 5.88167 81.7917 6.64 82.725 7.62C83.6817 8.57667 84.3933 9.70833 84.86 11.015L80.94 12.765C80.4267 11.4583 79.6567 10.455 78.63 9.755C77.6033 9.03167 76.4133 8.67 75.06 8.67C74.2667 8.67 73.5667 8.81 72.96 9.09C72.3533 9.34667 71.875 9.72 71.525 10.21C71.1983 10.6767 71.035 11.2367 71.035 11.89C71.035 12.6133 71.2683 13.255 71.735 13.815C72.2017 14.3517 72.9133 14.7717 73.87 15.075L78.665 16.58C80.7417 17.2567 82.2933 18.19 83.32 19.38C84.37 20.57 84.895 22.04 84.895 23.79C84.895 25.2833 84.51 26.6017 83.74 27.745C82.97 28.8883 81.9083 29.7867 80.555 30.44C79.2017 31.0933 77.6267 31.42 75.83 31.42ZM94.4002 31.42C93.0702 31.42 91.9152 31.1983 90.9352 30.755C89.9552 30.3117 89.1969 29.6817 88.6602 28.865C88.1236 28.025 87.8552 27.0567 87.8552 25.96C87.8552 24.91 88.0886 23.9767 88.5552 23.16C89.0219 22.32 89.7452 21.62 90.7252 21.06C91.7052 20.5 92.9419 20.1033 94.4352 19.87L100.665 18.855V22.355L95.3102 23.265C94.4002 23.4283 93.7236 23.72 93.2802 24.14C92.8369 24.56 92.6152 25.1083 92.6152 25.785C92.6152 26.4383 92.8602 26.9633 93.3502 27.36C93.8636 27.7333 94.4936 27.92 95.2402 27.92C96.1969 27.92 97.0369 27.7217 97.7602 27.325C98.5069 26.905 99.0786 26.3333 99.4752 25.61C99.8952 24.8867 100.105 24.0933 100.105 23.23V18.33C100.105 17.5133 99.7786 16.8367 99.1252 16.3C98.4952 15.74 97.6552 15.46 96.6052 15.46C95.6252 15.46 94.7502 15.7283 93.9802 16.265C93.2336 16.7783 92.6852 17.4667 92.3352 18.33L88.5902 16.51C88.9636 15.5067 89.5469 14.6433 90.3402 13.92C91.1569 13.1733 92.1136 12.59 93.2102 12.17C94.3069 11.75 95.4969 11.54 96.7802 11.54C98.3436 11.54 99.7202 11.8317 100.91 12.415C102.1 12.975 103.022 13.7683 103.675 14.795C104.352 15.7983 104.69 16.9767 104.69 18.33V31H100.35V27.745L101.33 27.675C100.84 28.4917 100.257 29.18 99.5802 29.74C98.9036 30.2767 98.1336 30.6967 97.2702 31C96.4069 31.28 95.4502 31.42 94.4002 31.42ZM116.173 31.42C114.143 31.42 112.37 30.9417 110.853 29.985C109.36 29.005 108.333 27.6867 107.773 26.03L111.203 24.385C111.693 25.4583 112.37 26.2983 113.233 26.905C114.12 27.5117 115.1 27.815 116.173 27.815C117.013 27.815 117.678 27.6283 118.168 27.255C118.658 26.8817 118.903 26.3917 118.903 25.785C118.903 25.4117 118.798 25.1083 118.588 24.875C118.401 24.6183 118.133 24.4083 117.783 24.245C117.456 24.0583 117.095 23.9067 116.698 23.79L113.583 22.915C111.973 22.4483 110.748 21.7367 109.908 20.78C109.091 19.8233 108.683 18.6917 108.683 17.385C108.683 16.2183 108.975 15.2033 109.558 14.34C110.165 13.4533 110.993 12.765 112.043 12.275C113.116 11.785 114.341 11.54 115.718 11.54C117.515 11.54 119.101 11.9717 120.478 12.835C121.855 13.6983 122.835 14.9117 123.418 16.475L119.918 18.12C119.591 17.2567 119.043 16.5683 118.273 16.055C117.503 15.5417 116.64 15.285 115.683 15.285C114.913 15.285 114.306 15.46 113.863 15.81C113.42 16.16 113.198 16.615 113.198 17.175C113.198 17.525 113.291 17.8283 113.478 18.085C113.665 18.3417 113.921 18.5517 114.248 18.715C114.598 18.8783 114.995 19.03 115.438 19.17L118.483 20.08C120.046 20.5467 121.248 21.2467 122.088 22.18C122.951 23.1133 123.383 24.2567 123.383 25.61C123.383 26.7533 123.08 27.7683 122.473 28.655C121.866 29.5183 121.026 30.195 119.953 30.685C118.88 31.175 117.62 31.42 116.173 31.42ZM126.906 31V11.96H131.491V31H126.906ZM126.906 9.825V4.925H131.491V9.825H126.906ZM144.895 31.42C143.005 31.42 141.302 30.9883 139.785 30.125C138.292 29.2383 137.113 28.0483 136.25 26.555C135.387 25.0383 134.955 23.335 134.955 21.445C134.955 19.555 135.387 17.8633 136.25 16.37C137.113 14.8767 138.292 13.6983 139.785 12.835C141.302 11.9717 143.005 11.54 144.895 11.54C146.248 11.54 147.508 11.785 148.675 12.275C149.842 12.7417 150.845 13.395 151.685 14.235C152.548 15.0517 153.167 16.0317 153.54 17.175L149.515 18.925C149.165 17.9683 148.57 17.1983 147.73 16.615C146.913 16.0317 145.968 15.74 144.895 15.74C143.892 15.74 142.993 15.985 142.2 16.475C141.43 16.965 140.823 17.6417 140.38 18.505C139.937 19.3683 139.715 20.36 139.715 21.48C139.715 22.6 139.937 23.5917 140.38 24.455C140.823 25.3183 141.43 25.995 142.2 26.485C142.993 26.975 143.892 27.22 144.895 27.22C145.992 27.22 146.948 26.9283 147.765 26.345C148.582 25.7617 149.165 24.98 149.515 24L153.54 25.82C153.167 26.8933 152.56 27.8617 151.72 28.725C150.88 29.565 149.877 30.23 148.71 30.72C147.543 31.1867 146.272 31.42 144.895 31.42ZM166.329 31.42C164.462 31.42 162.759 30.9883 161.219 30.125C159.702 29.2617 158.489 28.0833 157.579 26.59C156.692 25.0967 156.249 23.3933 156.249 21.48C156.249 19.5667 156.692 17.8633 157.579 16.37C158.489 14.8767 159.702 13.6983 161.219 12.835C162.735 11.9717 164.439 11.54 166.329 11.54C168.195 11.54 169.887 11.9717 171.404 12.835C172.92 13.6983 174.122 14.8767 175.009 16.37C175.919 17.84 176.374 19.5433 176.374 21.48C176.374 23.3933 175.919 25.0967 175.009 26.59C174.099 28.0833 172.885 29.2617 171.369 30.125C169.852 30.9883 168.172 31.42 166.329 31.42ZM166.329 27.22C167.355 27.22 168.254 26.975 169.024 26.485C169.817 25.995 170.435 25.3183 170.879 24.455C171.345 23.5683 171.579 22.5767 171.579 21.48C171.579 20.36 171.345 19.38 170.879 18.54C170.435 17.6767 169.817 17 169.024 16.51C168.254 15.9967 167.355 15.74 166.329 15.74C165.279 15.74 164.357 15.9967 163.564 16.51C162.77 17 162.14 17.6767 161.674 18.54C161.23 19.38 161.009 20.36 161.009 21.48C161.009 22.5767 161.23 23.5683 161.674 24.455C162.14 25.3183 162.77 25.995 163.564 26.485C164.357 26.975 165.279 27.22 166.329 27.22Z" fill="white"/>
</svg>
