<svg width="15" height="14" viewBox="0 0 15 14" fill="none" xmlns="http://www.w3.org/2000/svg">
<path d="M6.81258 0.15625C6.93758 0 7.18758 0 7.34383 0.15625L13.8751 6.6875C14.0313 6.84375 14.0313 7.0625 13.8751 7.21875L7.34383 13.75C7.18758 13.9062 6.93758 13.9062 6.81258 13.75L6.18758 13.1562C6.03133 13 6.03133 12.75 6.18758 12.625L11.0313 7.75H0.375082C0.156332 7.75 8.15392e-05 7.59375 8.15392e-05 7.375V6.5C8.15392e-05 6.3125 0.156332 6.125 0.375082 6.125H11.0313L6.18758 1.28125C6.03133 1.15625 6.03133 0.90625 6.18758 0.75L6.81258 0.15625Z" fill="#0F172A"/>
</svg>
