<svg width="14" height="15" viewBox="0 0 14 15" fill="none" xmlns="http://www.w3.org/2000/svg">
<path d="M0.15625 7.21875C0 7.09375 0 6.84375 0.15625 6.6875L6.6875 0.15625C6.84375 0 7.0625 0 7.21875 0.15625L13.75 6.6875C13.9062 6.84375 13.9062 7.09375 13.75 7.21875L13.1562 7.84375C13 8 12.75 8 12.625 7.84375L7.78125 3V13.6562C7.78125 13.875 7.59375 14.0312 7.40625 14.0312H6.53125C6.3125 14.0312 6.15625 13.875 6.15625 13.6562V3L1.28125 7.84375C1.15625 8 0.90625 8 0.75 7.84375L0.15625 7.21875Z" fill="white"/>
</svg>
