<svg width="40" height="40" viewBox="0 0 40 40" fill="none" xmlns="http://www.w3.org/2000/svg">
<g clip-path="url(#clip0_6001_189676)">
<path d="M40 15.104C40 6.78986 33.236 0.0258789 24.9219 0.0258789C18.9429 0.0258789 13.7656 3.524 11.329 8.58103C8.20125 9.38299 5.37328 11.2016 3.33367 13.7315C1.18391 16.3981 0 19.7567 0 23.1885C0 26.417 0.994063 29.4685 2.88133 32.0545L0.130313 39.9737L8.87672 36.9353C10.8289 37.819 12.9127 38.2666 15.0781 38.2666C20.8905 38.2666 26.1723 34.9253 28.6755 29.7114C29.5109 29.497 30.3281 29.2107 31.1233 28.8508L39.8697 31.8892L37.1187 23.9701C39.0059 21.384 40 18.3324 40 15.104ZM15.0781 35.9228C13.1074 35.9228 11.2179 35.4845 9.4618 34.6199L9.02234 34.4035L3.93219 36.1717L5.51359 31.6195L5.11148 31.1146C3.30078 28.8412 2.34375 26.1003 2.34375 23.1885C2.34375 20.2481 3.31703 17.4866 5.15836 15.2024C6.52563 13.5064 8.31164 12.1894 10.3097 11.3792C10.0058 12.571 9.84375 13.8188 9.84375 15.1039C9.84375 23.4181 16.6077 30.1821 24.9219 30.1821C25.1942 30.1821 25.4653 30.1749 25.7349 30.1608C23.4072 33.7156 19.4185 35.9228 15.0781 35.9228ZM30.9777 26.3191L30.5383 26.5354C28.7821 27.4 26.8924 27.8385 24.9219 27.8385C17.9001 27.8385 12.1875 22.1259 12.1875 15.1041C12.1875 8.08229 17.9001 2.36971 24.9219 2.36971C31.9437 2.36971 37.6562 8.08229 37.6562 15.1041C37.6562 18.0159 36.6992 20.7567 34.8885 23.0303L34.4864 23.5352L36.0678 28.0874L30.9777 26.3191Z" fill="#FF6733"/>
<path d="M20.9619 8.06039L16.8164 18.9448L19.0066 19.7791L19.6784 18.0155H24.2632L24.9275 19.7757L27.1203 18.9482L23.0107 8.05859L20.9619 8.06039ZM20.5709 15.6717L21.9812 11.9688L23.3787 15.6717H20.5709Z" fill="#FF6733"/>
<path d="M29.7578 14.1274H32.1016V19.7524H29.7578V14.1274Z" fill="#FF6733"/>
<path d="M29.7578 9.43994H32.1016V11.7837H29.7578V9.43994Z" fill="#FF6733"/>
</g>
<defs>
<clipPath id="clip0_6001_189676">
<rect width="40" height="40" fill="white"/>
</clipPath>
</defs>
</svg>
