<svg width="40" height="40" viewBox="0 0 40 40" fill="none" xmlns="http://www.w3.org/2000/svg">
<g clip-path="url(#clip0_6001_189668)">
<path d="M39.9813 34.8843C39.8708 33.6334 39.2798 32.5005 38.3182 31.6952C37.3294 30.8647 29.1969 24.0342 28.2115 23.2064C29.6423 20.886 30.4691 18.155 30.4691 15.2345C30.4691 13.9453 30.3075 12.6933 30.0046 11.4968L32.4699 9.03147C32.929 9.25154 33.4427 9.37506 33.9848 9.37506C35.9233 9.37506 37.5005 7.79795 37.5005 5.85936C37.5005 3.92077 35.9234 2.34375 33.9848 2.34375C32.0463 2.34375 30.4691 3.92085 30.4691 5.85944C30.4691 6.40155 30.5927 6.91522 30.8127 7.3742L29.1502 9.0367C26.7713 3.71663 21.4291 0 15.2346 0C6.83427 0 6.10352e-05 6.83421 6.10352e-05 15.2346C6.10352e-05 23.635 6.83427 30.4692 15.2346 30.4692C18.1552 30.4692 20.886 29.6424 23.2067 28.2116C24.0345 29.1973 30.868 37.3334 31.6995 38.3233C31.8792 38.5349 32.0798 38.7352 32.2796 38.9025C33.1337 39.6178 34.1894 40.0001 35.2902 40.0001C35.4302 40.0001 35.5711 39.9939 35.7123 39.9814C36.9631 39.8709 38.0961 39.2798 38.9024 38.3171C39.7087 37.3544 40.0919 36.1352 39.9813 34.8843ZM33.9848 4.68757C34.631 4.68757 35.1567 5.21327 35.1567 5.85944C35.1567 6.50561 34.631 7.03131 33.9848 7.03131C33.3387 7.03131 32.813 6.50561 32.813 5.85944C32.813 5.21327 33.3386 4.68757 33.9848 4.68757ZM15.2346 28.141C8.12661 28.141 2.32818 22.3582 2.32818 15.2502C2.32818 8.14225 8.12661 2.32812 15.2346 2.32812C20.7982 2.32812 25.5497 5.88686 27.3518 10.8351L23.7806 14.4062C23.3217 14.1861 22.808 14.0626 22.2659 14.0626C21.7238 14.0626 21.2101 14.1861 20.7511 14.4062L18.4067 12.0618C18.6267 11.6028 18.7503 11.0891 18.7503 10.547C18.7503 8.6085 17.1732 7.03131 15.2346 7.03131C13.296 7.03131 11.7189 8.60842 11.7189 10.547C11.7189 11.0891 11.8424 11.6028 12.0625 12.0618L9.71809 14.4062C9.25903 14.1861 8.74536 14.0626 8.20325 14.0626C6.26474 14.0626 4.68755 15.6397 4.68755 17.5783C4.68755 19.5168 6.26466 21.094 8.20325 21.094C10.1418 21.094 11.7189 19.5169 11.7189 17.5783C11.7189 17.0362 11.5954 16.5225 11.3754 16.0636L13.7197 13.7191C14.1788 13.9392 14.6925 14.0627 15.2346 14.0627C15.7767 14.0627 16.2903 13.9392 16.7493 13.7191L19.0937 16.0636C18.8737 16.5225 18.7502 17.0362 18.7502 17.5783C18.7502 19.5168 20.3273 21.094 22.2659 21.094C24.2045 21.094 25.7816 19.5169 25.7816 17.5783C25.7816 17.0362 25.6581 16.5225 25.438 16.0636L28.0074 13.4941C28.0846 14.0636 28.1253 14.6443 28.1253 15.2346C28.1254 22.3425 22.3426 28.141 15.2346 28.141ZM23.4378 17.5783C23.4378 18.2245 22.9121 18.7502 22.266 18.7502C21.6198 18.7502 21.0941 18.2245 21.0941 17.5783C21.0941 16.9322 21.6198 16.4065 22.266 16.4065C22.9121 16.4065 23.4378 16.9322 23.4378 17.5783ZM16.4064 10.547C16.4064 11.1932 15.8807 11.7189 15.2346 11.7189C14.5884 11.7189 14.0627 11.1932 14.0627 10.547C14.0627 9.90084 14.5884 9.37514 15.2346 9.37514C15.8807 9.37514 16.4064 9.90084 16.4064 10.547ZM9.37512 17.5783C9.37512 18.2245 8.84942 18.7502 8.20325 18.7502C7.55708 18.7502 7.03138 18.2245 7.03138 17.5783C7.03138 16.9322 7.55708 16.4065 8.20325 16.4065C8.84942 16.4065 9.37512 16.9322 9.37512 17.5783ZM26.6115 28.6212L25.1058 26.8285C25.7246 26.3008 26.3008 25.7246 26.8284 25.1058L28.6212 26.6115C28.006 27.3343 27.3343 28.006 26.6115 28.6212ZM37.1055 36.812C36.7012 37.2948 36.1331 37.5912 35.5059 37.6466C34.8783 37.7019 34.2673 37.5098 33.7844 37.1054C33.6873 37.0241 33.5784 36.9149 33.4899 36.8107L28.1197 30.4168C28.9464 29.7143 29.7144 28.9464 30.4169 28.1196L36.8119 33.4909C37.2947 33.8952 37.5911 34.4633 37.6465 35.0906C37.7021 35.7179 37.5099 36.3292 37.1055 36.812Z" fill="#FF6733"/>
</g>
<defs>
<clipPath id="clip0_6001_189668">
<rect width="40" height="40" fill="white"/>
</clipPath>
</defs>
</svg>
