<svg width="40" height="40" viewBox="0 0 40 40" fill="none" xmlns="http://www.w3.org/2000/svg">
<g clip-path="url(#clip0_6001_189655)">
<path d="M37.3326 29.8326L33.75 33.4153L31.7298 31.3951C31.1196 30.7849 30.1303 30.7849 29.5201 31.3951C28.91 32.0054 28.9099 32.9947 29.5201 33.6048L32.6451 36.7298C32.9502 37.0349 33.3501 37.1875 33.75 37.1875C34.1499 37.1875 34.5498 37.0349 34.8548 36.7298L39.5423 32.0423C40.1526 31.4321 40.1526 30.4428 39.5423 29.8326C38.9321 29.2225 37.9428 29.2224 37.3326 29.8326Z" fill="#FF6733"/>
<path d="M20 0C8.78508 0 0 8.785 0 20C0 31.215 8.78508 40 20 40C22.6205 40 25.1718 39.5077 27.583 38.5368C28.3835 38.2145 28.7712 37.3043 28.4489 36.5037C28.1266 35.7032 27.2164 35.3156 26.4159 35.638C24.3773 36.4588 22.2187 36.875 20 36.875C10.5373 36.875 3.125 29.4626 3.125 20C3.125 10.5374 10.5373 3.125 20 3.125C29.4627 3.125 36.875 10.5374 36.875 20C36.875 21.3068 36.728 22.6085 36.4381 23.8691C36.2447 24.7101 36.7697 25.5486 37.6107 25.742C38.4516 25.9355 39.2902 25.4105 39.4837 24.5695C39.8262 23.0795 40 21.5422 40 20C40 8.785 31.2149 0 20 0Z" fill="#FF6733"/>
<path d="M27.3548 27.3548C27.9651 26.7446 27.9651 25.7553 27.3548 25.1452L21.5625 19.3528V13.75C21.5625 12.887 20.863 12.1875 20 12.1875C19.137 12.1875 18.4375 12.887 18.4375 13.75V20C18.4375 20.4144 18.6021 20.8118 18.8952 21.1048L25.1452 27.3548C25.7553 27.9651 26.7447 27.9651 27.3548 27.3548Z" fill="#FF6733"/>
<path d="M20 9.0625C20.8629 9.0625 21.5625 8.36294 21.5625 7.5C21.5625 6.63706 20.8629 5.9375 20 5.9375C19.1371 5.9375 18.4375 6.63706 18.4375 7.5C18.4375 8.36294 19.1371 9.0625 20 9.0625Z" fill="#FF6733"/>
<path d="M20 34.0625C20.8629 34.0625 21.5625 33.3629 21.5625 32.5C21.5625 31.6371 20.8629 30.9375 20 30.9375C19.1371 30.9375 18.4375 31.6371 18.4375 32.5C18.4375 33.3629 19.1371 34.0625 20 34.0625Z" fill="#FF6733"/>
<path d="M7.8125 21.5625C8.67544 21.5625 9.375 20.8629 9.375 20C9.375 19.1371 8.67544 18.4375 7.8125 18.4375C6.94956 18.4375 6.25 19.1371 6.25 20C6.25 20.8629 6.94956 21.5625 7.8125 21.5625Z" fill="#FF6733"/>
<path d="M32.1875 21.5625C33.0504 21.5625 33.75 20.8629 33.75 20C33.75 19.1371 33.0504 18.4375 32.1875 18.4375C31.3246 18.4375 30.625 19.1371 30.625 20C30.625 20.8629 31.3246 21.5625 32.1875 21.5625Z" fill="#FF6733"/>
</g>
<defs>
<clipPath id="clip0_6001_189655">
<rect width="40" height="40" fill="white"/>
</clipPath>
</defs>
</svg>
