<svg width="37" height="40" viewBox="0 0 37 40" fill="none" xmlns="http://www.w3.org/2000/svg">
<path d="M22.6163 26.2932L20.6163 28.0289L20.2136 27.4758C19.8216 26.9376 19.0659 26.8194 18.5263 27.2101C17.9866 27.602 17.8685 28.3577 18.2605 28.8974L19.4377 30.5135C19.6364 30.7874 19.9411 30.9645 20.278 31.0021C20.3236 31.0075 20.3679 31.0102 20.4149 31.0102C20.7049 31.0102 20.9868 30.9055 21.2069 30.7149L24.2003 28.1161C24.7037 27.6785 24.7587 26.9161 24.3211 26.4114C23.8835 25.9067 23.1184 25.8556 22.6163 26.2932Z" fill="#FF6733"/>
<path d="M32.0964 0H10.505C8.04322 0 6.03913 1.99738 6.03913 4.45116V6.04584H4.45384C1.99738 6.04584 0 8.04457 0 10.4997V35.5462C0 38.0026 1.99872 40 4.45384 40H26.0452C28.5016 40 30.5003 38.0026 30.5003 35.5462V33.9582H32.095C34.5488 33.9582 36.5462 31.9554 36.5462 29.4936V4.4525C36.5475 1.99738 34.5501 0 32.0964 0ZM28.0842 35.5475C28.0842 36.671 27.17 37.5852 26.0452 37.5852H4.45384C3.33031 37.5852 2.41485 36.671 2.41485 35.5475V10.501C2.41485 9.3775 3.32897 8.46203 4.45384 8.46203H26.0452C27.17 8.46203 28.0842 9.37615 28.0842 10.501V35.5475ZM34.13 29.4949C34.13 30.6252 33.2172 31.5433 32.095 31.5433H30.5003V10.501C30.5003 8.04457 28.5016 6.04718 26.0452 6.04718H8.45532V4.4525C8.45532 3.33031 9.37481 2.41619 10.505 2.41619H32.0964C33.2186 2.41619 34.1313 3.32897 34.1313 4.4525L34.13 29.4949Z" fill="#FF6733"/>
<path d="M23.4096 20.9727H7.09091C6.42377 20.9727 5.88281 21.5136 5.88281 22.1807C5.88281 22.8479 6.42377 23.3888 7.09091 23.3888H23.4096C24.0767 23.3888 24.6177 22.8479 24.6177 22.1807C24.6177 21.5136 24.0767 20.9727 23.4096 20.9727Z" fill="#FF6733"/>
<path d="M14.9878 27.2964H7.09091C6.42377 27.2964 5.88281 27.8373 5.88281 28.5045C5.88281 29.1716 6.42377 29.7126 7.09091 29.7126H14.9878C15.655 29.7126 16.1959 29.1716 16.1959 28.5045C16.1959 27.8373 15.655 27.2964 14.9878 27.2964Z" fill="#FF6733"/>
<path d="M12.3897 14.7106H18.1094C18.7765 14.7106 19.3175 14.1697 19.3175 13.5025C19.3175 12.8354 18.7765 12.2944 18.1094 12.2944H12.3897C11.7226 12.2944 11.1816 12.8354 11.1816 13.5025C11.1816 14.1697 11.7226 14.7106 12.3897 14.7106Z" fill="#FF6733"/>
</svg>
