<svg width="16" height="16" viewBox="0 0 16 16" fill="none" xmlns="http://www.w3.org/2000/svg">
<path d="M14.8125 10.4688C15.0625 10.5938 15.1562 10.9062 15 11.1562L14 12.875C13.875 13.125 13.5625 13.1875 13.3125 13.0625L9.09375 10.625V15.5C9.09375 15.7812 8.84375 16 8.59375 16H6.5625C6.3125 16 6.0625 15.7812 6.0625 15.5V10.625L1.84375 13.0625C1.59375 13.1875 1.28125 13.125 1.15625 12.875L0.15625 11.1562C0 10.9062 0.09375 10.5938 0.34375 10.4688L4.5625 8L0.34375 5.5625C0.09375 5.4375 0 5.125 0.15625 4.875L1.15625 3.15625C1.28125 2.90625 1.59375 2.84375 1.84375 2.96875L6.0625 5.40625V0.5C6.0625 0.25 6.3125 0 6.5625 0H8.59375C8.84375 0 9.09375 0.25 9.09375 0.5V5.40625L13.3125 2.96875C13.5625 2.8125 13.875 2.90625 14 3.15625L15 4.875C15.1562 5.125 15.0625 5.4375 14.8125 5.5625L10.5938 8L14.8125 10.4688Z" fill="#FF6733"/>
</svg>
