<svg width="152" height="30" viewBox="0 0 152 30" fill="none" xmlns="http://www.w3.org/2000/svg">
<path d="M17.6319 5.63738L8.81593 11.2748L17.6319 16.9121L8.81593 22.5495L0 16.8817L8.81593 11.2443L0 5.63738L8.81593 0L17.6319 5.63738ZM8.77033 24.3626L17.5863 18.7252L26.4022 24.3626L17.5863 30L8.77033 24.3626ZM17.6319 16.8817L26.4478 11.2443L17.6319 5.63738L26.4022 0L35.2181 5.63738L26.4022 11.2748L35.2181 16.9121L26.4022 22.5495L17.6319 16.8817Z" fill="#706F6B"/>
<path d="M42.1387 5.63694H49.2674C53.8122 5.63694 57.5665 8.2728 57.5665 14.2911V15.5557C57.5665 21.6197 54.0554 24.3469 49.4042 24.3469H42.1387V5.63694ZM46.121 9.03461V20.934H49.1762C51.7602 20.934 53.493 19.2428 53.493 15.4795V14.4892C53.493 10.7258 51.669 9.03461 49.0394 9.03461H46.121ZM59.6793 9.21744H62.8713L63.3881 12.737C63.9961 10.3449 65.5465 9.06508 68.3585 9.06508H69.3464V13.1027H67.7049C64.4673 13.1027 63.6769 14.2301 63.6769 17.4297V24.3927H59.7401V9.21744H59.6793ZM70.1368 17.1098V16.6832C70.1368 11.6095 73.3744 8.83654 77.7824 8.83654C82.2815 8.83654 85.4279 11.6095 85.4279 16.6832V17.1098C85.4279 22.092 82.3727 24.7736 77.7824 24.7736C72.9032 24.7278 70.1368 22.1072 70.1368 17.1098ZM81.3999 17.0641V16.6832C81.3999 13.8645 79.9864 12.1733 77.7368 12.1733C75.5328 12.1733 74.0736 13.7273 74.0736 16.6832V17.0641C74.0736 19.7913 75.4872 21.3454 77.7368 21.3454C79.9864 21.2997 81.3999 19.7913 81.3999 17.0641ZM87.4951 9.21744H90.7783L91.1583 12.0818C91.9487 10.1621 93.6358 8.83654 96.1286 8.83654C99.9742 8.83654 102.513 11.6095 102.513 16.7441V17.1707C102.513 22.1529 99.7006 24.7888 96.1286 24.7888C93.7422 24.7888 92.1007 23.707 91.2951 21.9701V29.6339H87.4495L87.4951 9.21744ZM98.515 17.0641V16.7289C98.515 13.7121 96.9646 12.219 94.8974 12.219C92.6935 12.219 91.2343 13.9102 91.2343 16.7289V17.0184C91.2343 19.6999 92.6479 21.3911 94.8518 21.3911C97.1166 21.3454 98.515 19.898 98.515 17.0641ZM108.334 21.5892L108 24.3622H104.625V4.1438H108.471V11.899C109.322 9.9183 111.009 8.83654 113.396 8.83654C117.013 8.88224 119.688 11.381 119.688 16.4089V16.8812C119.688 21.9092 117.15 24.7888 113.304 24.7888C110.766 24.7278 109.125 23.5547 108.334 21.5892ZM115.645 16.8812V16.5003C115.645 13.7273 114.14 12.1733 112.028 12.1733C109.869 12.1733 108.365 13.9102 108.365 16.546V16.8812C108.365 19.6999 109.824 21.3454 111.982 21.3454C114.292 21.3454 115.645 19.898 115.645 16.8812ZM121.376 17.1098V16.6832C121.376 11.6095 124.613 8.83654 129.021 8.83654C133.52 8.83654 136.667 11.6095 136.667 16.6832V17.1098C136.667 22.092 133.566 24.7736 129.021 24.7736C124.142 24.7278 121.376 22.1072 121.376 17.1098ZM132.669 17.0641V16.6832C132.669 13.8645 131.256 12.1733 129.006 12.1733C126.802 12.1733 125.343 13.7273 125.343 16.6832V17.0641C125.343 19.7913 126.756 21.3454 129.006 21.3454C131.271 21.2997 132.669 19.7913 132.669 17.0641ZM141.819 16.5003L136.515 9.21744H141.059L144.115 13.7731L147.215 9.21744H151.715L146.334 16.4546L152.003 24.3622H147.55L144.084 19.3342L140.71 24.3622H136.059L141.819 16.5003Z" fill="#706F6B"/>
</svg>
