<svg width="106" height="30" viewBox="0 0 106 30" fill="none" xmlns="http://www.w3.org/2000/svg">
<path d="M11.48 4.96631V13.425H3.694V4.96631H0V25.1583H3.695V16.9741H11.479V25.1583H15.175V4.96631H11.48ZM27.002 18.6319C27.002 19.4412 26.6799 20.2174 26.1065 20.7897C25.5331 21.362 24.7554 21.6835 23.9445 21.6835C23.1336 21.6835 22.3559 21.362 21.7825 20.7897C21.2091 20.2174 20.887 19.4412 20.887 18.6319V9.98262H17.382V18.6319C17.382 20.3673 18.0727 22.0316 19.3022 23.2588C20.5317 24.4859 22.1992 25.1753 23.938 25.1753C25.6768 25.1753 27.3443 24.4859 28.5738 23.2588C29.8033 22.0316 30.494 20.3673 30.494 18.6319V9.98262H27.002V18.6319ZM52.973 10.8739C52.973 9.10032 54.148 8.53841 55.435 8.53841C56.473 8.53841 57.843 9.32688 58.74 10.283L61.035 7.58226C59.889 6.03524 57.565 4.96631 55.662 4.96631C51.859 4.96631 49.109 7.18901 49.109 10.8739C49.109 17.7107 57.481 15.5409 57.481 19.3675C57.481 20.5472 56.333 21.5892 55.019 21.5892C52.946 21.5892 52.274 20.5782 51.322 19.5082L48.774 22.1521C50.404 24.1483 52.414 25.1623 54.821 25.1623C58.434 25.1623 61.34 22.9126 61.34 19.3954C61.34 11.8061 52.967 14.1645 52.967 10.8739M104.767 21.9325C102.696 21.9325 102.107 21.0383 102.107 19.6689V13.6056H105.327V10.5336H102.107V6.48038L98.553 8.07231V20.4225C98.553 23.5813 100.737 25.1733 103.731 25.1733C104.201 25.1813 104.671 25.1433 105.133 25.0615L106 21.8756C105.609 21.9026 105.16 21.9295 104.767 21.9295M40.344 10.0834C38.608 10.0834 37.396 10.5865 36.224 11.7332V5.08708H32.714V17.4063C32.714 22.0174 36.054 25.1773 39.808 25.1773C43.972 25.1773 47.635 21.9615 47.635 17.6318C47.635 13.3561 44.264 10.0864 40.344 10.0864M40.322 21.6511C39.7989 21.6511 39.2809 21.5482 38.7976 21.3484C38.3143 21.1486 37.8751 20.8558 37.5052 20.4866C37.1353 20.1174 36.8419 19.6791 36.6417 19.1967C36.4415 18.7144 36.3385 18.1974 36.3385 17.6753C36.3385 17.1531 36.4415 16.6361 36.6417 16.1538C36.8419 15.6714 37.1353 15.2331 37.5052 14.8639C37.8751 14.4947 38.3143 14.2019 38.7976 14.0021C39.2809 13.8023 39.7989 13.6994 40.322 13.6994C41.3785 13.6994 42.3917 14.1183 43.1388 14.8639C43.8858 15.6095 44.3055 16.6208 44.3055 17.6753C44.3055 18.7297 43.8858 19.741 43.1388 20.4866C42.3917 21.2322 41.3785 21.6511 40.322 21.6511ZM78.464 17.4482C78.464 13.1106 74.809 9.90277 70.637 9.90277C66.884 9.90277 63.543 13.0617 63.543 17.6738V30H67.053V23.3448C68.223 24.4896 69.437 24.9946 71.171 24.9946C75.091 24.9946 78.464 21.7249 78.464 17.4482ZM75.14 17.4043C75.14 18.4587 74.7203 19.47 73.9733 20.2156C73.2262 20.9612 72.213 21.3801 71.1565 21.3801C70.1 21.3801 69.0868 20.9612 68.3397 20.2156C67.5927 19.47 67.173 18.4587 67.173 17.4043C67.173 16.3498 67.5927 15.3386 68.3397 14.593C69.0868 13.8473 70.1 13.4285 71.1565 13.4285C72.213 13.4285 73.2262 13.8473 73.9733 14.593C74.7203 15.3386 75.14 16.3498 75.14 17.4043Z" fill="#706F6B"/>
<path d="M89.8079 9.7332V6.213C90.274 5.99559 90.6686 5.65053 90.9459 5.21798C91.2231 4.78543 91.3716 4.28319 91.3739 3.76972V3.68887C91.3739 2.19177 90.1579 0.97811 88.6579 0.97811H88.5769C87.8566 0.97811 87.1658 1.26371 86.6564 1.77207C86.1471 2.28044 85.8609 2.96994 85.8609 3.68887V3.76972C85.8633 4.28319 86.0118 4.78543 86.289 5.21798C86.5662 5.65053 86.9609 5.99559 87.4269 6.213V9.7332C86.0874 9.93792 84.8258 10.4923 83.7699 11.3401L74.0969 3.82062C74.1659 3.5721 74.2019 3.31659 74.2059 3.06009C74.2071 2.45596 74.0288 1.86505 73.6934 1.36211C73.3581 0.859164 72.8808 0.466779 72.322 0.234586C71.7632 0.00239329 71.148 -0.0591757 70.5541 0.0576672C69.9602 0.17451 69.4144 0.464515 68.9857 0.891C68.557 1.31748 68.2647 1.86129 68.1457 2.45363C68.0267 3.04596 68.0863 3.66022 68.3172 4.2187C68.548 4.77718 68.9395 5.2548 69.4424 5.59113C69.9452 5.92747 70.5366 6.10741 71.1419 6.1082C71.6715 6.10571 72.1911 5.96461 72.6489 5.69899L82.1739 13.0967C81.3183 14.3869 80.8719 15.9044 80.8929 17.4515C80.914 18.9986 81.4015 20.5034 82.2919 21.77L79.3949 24.6624C79.1608 24.5876 78.9168 24.5479 78.6709 24.5446C78.1741 24.545 77.6885 24.6924 77.2755 24.9681C76.8626 25.2439 76.5408 25.6356 76.3508 26.0938C76.1609 26.5521 76.1113 27.0562 76.2083 27.5426C76.3053 28.0289 76.5446 28.4756 76.896 28.8263C77.2473 29.1769 77.6949 29.4158 78.1822 29.5126C78.6695 29.6095 79.1746 29.56 79.6337 29.3704C80.0928 29.1808 80.4853 28.8596 80.7616 28.4475C81.0379 28.0353 81.1855 27.5506 81.1859 27.0547C81.1827 26.8094 81.1429 26.5658 81.0679 26.3321L83.9339 23.4707C84.8685 24.1888 85.9554 24.6839 87.1113 24.918C88.2672 25.1521 89.4615 25.1191 90.6026 24.8214C91.7437 24.5236 92.8014 23.9692 93.6947 23.2005C94.5879 22.4318 95.2931 21.4692 95.756 20.3865C96.219 19.3038 96.4275 18.1297 96.3656 16.9541C96.3037 15.7785 95.973 14.6327 95.3988 13.6044C94.8247 12.5761 94.0224 11.6926 93.0533 11.0216C92.0842 10.3506 90.974 9.90986 89.8079 9.7332ZM88.6199 21.3108C88.0903 21.3254 87.563 21.2338 87.0694 21.0416C86.5758 20.8493 86.1258 20.5603 85.746 20.1915C85.3662 19.8227 85.0644 19.3817 84.8582 18.8945C84.6521 18.4073 84.5459 17.8838 84.5459 17.355C84.5459 16.8261 84.6521 16.3026 84.8582 15.8155C85.0644 15.3283 85.3662 14.8873 85.746 14.5185C86.1258 14.1497 86.5758 13.8607 87.0694 13.6684C87.563 13.4761 88.0903 13.3846 88.6199 13.3991C89.6465 13.435 90.6191 13.8671 91.3328 14.6045C92.0465 15.3418 92.4457 16.3268 92.4462 17.3521C92.4467 18.3773 92.0485 19.3627 91.3356 20.1008C90.6226 20.8388 89.6505 21.2719 88.6239 21.3088" fill="#706F6B"/>
</svg>
