<svg width="110" height="30" viewBox="0 0 110 30" fill="none" xmlns="http://www.w3.org/2000/svg">
<path d="M13.2937 0C20.213 0 26.7509 5.36101 26.7509 13.1588C26.7509 17.5451 24.6805 21.1191 21.7385 23.5018C22.6102 24.9097 23.6999 25.8845 25.0074 25.8845C26.5329 25.8845 27.1867 24.6931 27.2957 23.7184H29.2571C29.366 25.018 28.7122 30 23.264 30C19.8861 30 18.1426 28.0505 16.8351 25.8845C15.7454 26.1011 14.5468 26.3177 13.3482 26.3177C6.64685 26.3177 0 20.9567 0 13.1588C0 5.36101 6.64685 0 13.2937 0ZM62.1644 5.90253C67.7216 5.90253 72.1892 9.80144 72.2437 15.5957C72.2437 21.7148 67.7216 25.722 62.1644 25.722C56.7707 25.722 52.0852 21.6606 52.0852 15.5957C52.0852 9.69314 56.7162 5.90253 62.1644 5.90253ZM98.8311 5.90253C103.735 5.90253 106.786 7.20217 106.786 12.0758V20.4152C106.786 21.7148 107.221 22.3646 108.311 22.3646C108.856 22.3646 109.292 22.148 109.51 22.0397L110 23.0144C109.564 23.7726 108.148 25.1805 105.532 25.1805C103.244 25.1805 101.828 24.0975 101.61 22.3646H101.501C100.411 24.3141 98.4497 25.6137 95.6166 25.6137C92.2387 25.6137 90.1684 23.8809 90.1684 20.7401C90.1684 14.5668 98.8311 16.2996 101.337 12.1841V11.2094C101.337 8.2852 100.139 7.63538 98.8311 7.63538C94.9084 7.63538 96.6518 12.1841 93.1649 12.1841C91.4215 12.1841 90.7677 11.2094 90.7677 10.0181C90.7677 7.74368 93.6008 5.90253 98.8311 5.90253ZM36.8301 6.33574V19.0072C36.8301 21.3899 38.0287 22.4729 39.7722 22.4729C41.1887 22.4729 42.7142 21.8231 43.477 20.3069V9.80144C43.477 8.71841 43.1501 8.2852 41.9515 8.2852H40.6439V6.33574H48.9252V20.2527C48.9252 21.5523 49.3611 22.2022 50.8866 22.2022H51.1045V24.2599L43.6949 25.4513V22.6895H43.5859C42.1694 24.4765 40.0991 25.5596 37.3749 25.5596C33.997 25.5596 31.4908 23.8267 31.4908 19.1697V9.80144C31.4908 8.71841 31.055 8.2852 29.8564 8.2852H28.6578V6.33574H36.8301ZM86.0277 6.01083C87.7712 6.01083 89.1877 6.98556 89.1877 8.93502C89.1877 10.343 88.5339 11.7509 86.5726 11.7509C84.9381 11.7509 84.6112 10.2347 83.1946 10.2347C81.996 10.2347 81.0154 11.426 81.0154 13.1588V20.8484C81.0154 22.5812 81.4512 23.1227 83.4126 23.1227H84.5022V25.1805H72.734V23.1769H73.4968C75.4581 23.1769 75.6761 22.6354 75.6761 20.9025V9.80144C75.6761 8.71841 75.1313 8.2852 73.9326 8.2852H72.843V6.33574H80.3616L80.6885 10.2347H80.9064C81.6691 7.41877 83.9574 6.01083 86.0277 6.01083ZM13.3482 2.11191C8.33581 2.11191 6.15651 5.84838 6.15651 13.1047C6.15651 20.361 8.33581 24.0975 13.3482 24.0975C14.2744 24.0975 15.0916 23.8809 15.7454 23.6643C14.7647 21.3899 13.4572 19.2238 10.951 19.2238C10.5151 19.2238 10.0792 19.3321 9.64339 19.5487L8.88063 18.0325C9.97028 17.1119 11.4413 16.4079 13.4572 16.4079C16.6171 16.4079 18.2516 17.9242 19.5592 19.8736C20.3219 18.2491 20.6488 15.9747 20.6488 13.1047C20.6488 5.84838 18.4695 2.11191 13.3482 2.11191ZM62.1644 7.74368C59.5493 7.74368 58.0238 10.343 58.0238 15.5415C58.0238 20.8484 59.5493 23.556 62.1644 23.556C64.9975 23.556 66.0872 20.8484 66.1961 15.5415C66.3051 10.3971 64.9975 7.74368 62.1644 7.74368ZM101.283 14.4585C99.5394 16.3538 95.5077 16.6245 95.5077 20.0903C95.5077 21.8231 96.5973 22.7978 98.0139 22.7978C100.411 22.7978 101.283 20.7401 101.283 18.4657V14.4585Z" fill="#706F6B"/>
</svg>
