<svg width="143" height="30" viewBox="0 0 143 30" fill="none" xmlns="http://www.w3.org/2000/svg">
<path d="M109.28 11.1266H115.092L116.788 16.6516C117.337 18.4766 118.285 21.9266 118.285 21.9266C118.285 21.9516 118.31 21.9516 118.334 21.9516L118.359 21.9266C118.359 21.9266 119.332 18.4266 119.881 16.6516L121.652 11.1266H125.967L127.713 16.6516C128.287 18.5516 129.21 21.9266 129.21 21.9266C129.21 21.9516 129.235 21.9516 129.26 21.9516L129.285 21.9266C129.285 21.9266 130.232 18.5016 130.781 16.6516L132.477 11.1266H137.89L132.028 29.3766H126.715L125.269 24.8016C124.72 23.0016 123.722 19.5016 123.722 19.5016C123.722 19.4766 123.697 19.4766 123.672 19.4766L123.647 19.5016C123.647 19.5016 122.675 22.9266 122.076 24.7766L120.604 29.4016H115.192L109.28 11.1266ZM70.0941 1.47656H75.9807V29.4016H70.0941V1.47656ZM80.3458 1.47656H86.2324V29.4016H80.3458V1.47656ZM103.319 20.3266C103.319 17.6016 101.373 15.7516 99.1032 15.7516C96.7585 15.7516 94.8129 17.6016 94.8129 20.3266C94.8129 23.0516 96.7585 24.9016 99.1032 24.9016C101.373 24.9016 103.319 23.0516 103.319 20.3266ZM89.1508 20.3266C89.1508 14.7766 93.6156 10.6766 99.0782 10.6766C104.491 10.6766 108.956 14.7766 108.956 20.3266C108.956 25.9016 104.491 30.0016 99.0782 30.0016C93.6406 30.0016 89.1508 25.9016 89.1508 20.3266ZM36.0215 4.07656V9.45157H46.4229C46.4728 9.45157 46.4977 9.50157 46.4728 9.52657L36.0215 27.3266C35.7721 27.8016 35.6973 27.8766 35.6973 28.3516V29.4016H55.9762V24.0266H44.7267C44.7018 24.0266 44.6769 24.0016 44.6769 23.9766C44.6769 23.9516 44.6769 23.9516 44.6769 23.9516L55.2528 5.92657C55.3276 5.75157 55.4274 5.62657 55.4274 5.20157V4.07656H36.0215ZM59.7426 11.1266H65.6292V29.3766H59.7426V11.1266ZM62.6859 1.97656C64.5317 1.97656 66.0283 3.45156 66.0283 5.30157C66.0283 7.15157 64.5068 8.62657 62.6859 8.62657C60.8401 8.62657 59.3435 7.15157 59.3435 5.30157C59.3435 3.45156 60.8651 1.97656 62.6859 1.97656Z" fill="#706F6B"/>
<path d="M18.1284 7.95001C18.2531 7.92501 18.3279 7.97501 18.4028 8.05001C18.8517 8.57501 20.3483 10.375 20.7474 10.875C20.7973 10.95 20.7973 11.05 20.7225 11.1L20.6975 11.125C17.7043 13.5 14.9606 16.2 12.5161 19.15C12.4912 19.2 12.5161 19.2 12.5411 19.175C15.7837 17.775 23.3665 15.55 26.7837 14.925V10.6L13.4141 0L0.0195312 10.6V15.35C4.16012 12.875 13.7633 9.05001 18.1284 7.95001Z" fill="#706F6B"/>
<path d="M7.23356 26.2013C7.13379 26.2513 7.00907 26.2263 6.95918 26.1513L4.46485 23.1763C4.39002 23.1013 4.39002 23.0513 4.4898 22.9263C6.41043 20.1013 10.3515 15.6763 12.8707 13.8013C12.9206 13.7513 12.9206 13.7263 12.8458 13.7513C10.2018 14.6013 2.76871 17.8013 0 19.3763V29.5013H26.8141V19.7513C23.1474 20.3763 12.1973 23.6263 7.23356 26.2013Z" fill="#706F6B"/>
<path d="M141.833 8.52647C141.833 8.00146 141.458 7.62646 140.96 7.62646H140.012V10.1765H140.436V9.42647H140.86L141.334 10.2015H141.808L141.309 9.37647C141.608 9.22647 141.833 8.92647 141.833 8.52647ZM140.935 9.05147H140.436V8.00147H140.935C141.209 8.00147 141.409 8.22647 141.409 8.52647C141.409 8.82647 141.209 9.05147 140.935 9.05147Z" fill="#706F6B"/>
<path d="M140.8 6.75C139.578 6.75 138.605 7.725 138.605 8.95C138.605 10.175 139.578 11.15 140.8 11.15C142.023 11.15 142.995 10.175 142.995 8.95C142.995 7.725 142.023 6.75 140.8 6.75ZM140.8 10.725C139.828 10.725 139.029 9.925 139.029 8.95C139.029 7.975 139.828 7.175 140.8 7.175C141.773 7.175 142.571 7.975 142.571 8.95C142.596 9.925 141.798 10.725 140.8 10.725Z" fill="#706F6B"/>
</svg>
