<svg width="199" height="30" viewBox="0 0 199 30" fill="none" xmlns="http://www.w3.org/2000/svg">
<path d="M29.8363 15.1616C29.8363 23.3572 23.1572 30.0014 14.9179 30.0014C6.67859 30.0014 0 23.3592 0 15.1616C0 6.96395 6.67909 0.322266 14.9179 0.322266C23.1567 0.322266 29.8363 6.96595 29.8363 15.1616Z" fill="#706F6B"/>
<path d="M46.2055 15.1614C46.2055 22.8766 42.8657 29.1304 38.7463 29.1304C34.6269 29.1304 31.2871 22.8746 31.2871 15.1614C31.2871 7.44821 34.6269 1.19238 38.7463 1.19238C42.8657 1.19238 46.2055 7.44821 46.2055 15.1614Z" fill="#706F6B"/>
<path d="M52.8935 15.1582C52.8935 22.0707 51.7188 27.6739 50.27 27.6739C48.8212 27.6739 47.6465 22.0687 47.6465 15.1582C47.6465 8.2478 48.8212 2.64258 50.2705 2.64258C51.7198 2.64258 52.8935 8.2463 52.8935 15.1582Z" fill="#706F6B"/>
<path d="M94.0641 1.6075L94.1056 1.59849V1.28069H85.6217L77.744 19.5727L69.8664 1.28069H60.7239V1.59849L60.7649 1.6075C62.3135 1.95282 63.0997 2.4678 63.0997 4.32503V26.0678C63.0997 27.925 62.3104 28.44 60.7619 28.7853L60.7208 28.7943V29.1131H66.9237V28.7953L66.8827 28.7863C65.3341 28.441 64.5479 27.926 64.5479 26.0688V5.5862L74.6676 29.1131H75.2416L85.6561 4.93009V26.6058C85.5234 28.0726 84.7443 28.5256 83.3421 28.8384L83.3006 28.8479V29.1632H94.1056V28.8479L94.0641 28.8384C92.6604 28.5256 91.8626 28.0726 91.7298 26.6058L91.7228 4.32503H91.7298C91.7298 2.4678 92.516 1.95282 94.0641 1.6075ZM98.9996 16.0109C99.1764 12.1043 100.596 9.28465 102.979 9.2361C103.714 9.24811 104.331 9.48633 104.81 9.94476C105.828 10.9212 106.307 12.9616 106.233 16.0109H98.9996ZM98.8927 17.1119H111.557V17.0594C111.521 14.0721 110.645 11.7484 108.956 10.153C107.496 8.77417 105.335 8.01546 103.064 8.01546H103.014C101.835 8.01546 100.39 8.29773 99.3618 8.8092C98.1911 9.3447 97.1587 10.1454 96.2996 11.1964C94.9167 12.8895 94.0788 15.1776 93.8752 17.749C93.8686 17.8261 93.863 17.9032 93.8574 17.9802C93.8519 18.0573 93.8483 18.1264 93.8448 18.1999C93.8377 18.3376 93.8321 18.4757 93.8291 18.6143C93.824 18.8365 93.8225 19.0602 93.8265 19.2855C93.9638 25.1094 97.1481 29.7637 102.804 29.7637C107.768 29.7637 110.659 26.1784 111.38 21.3659L111.016 21.2393C109.749 23.8257 107.475 25.3931 104.886 25.202C101.353 24.9407 98.6455 21.4009 98.8912 17.1129M125.876 25.0043C125.46 25.9777 124.593 26.5132 123.432 26.5132C122.27 26.5132 121.209 25.7255 120.454 24.2941C119.644 22.7577 119.217 20.5857 119.217 18.0128C119.217 12.6578 120.903 9.19406 123.512 9.19406C124.605 9.19406 125.465 9.72956 125.876 10.6639V25.0043ZM134.276 28.8218C132.728 28.46 131.942 27.921 131.942 25.9692V0L122.533 2.73855V3.07386L122.591 3.06936C123.889 2.96576 124.769 3.14293 125.28 3.60936C125.681 3.9747 125.876 4.53522 125.876 5.32396V8.88427C124.948 8.29923 123.845 8.01446 122.506 8.01446C119.791 8.01446 117.309 9.14401 115.519 11.1954C113.654 13.3334 112.667 16.2551 112.667 19.6438C112.667 25.6959 115.682 29.7637 120.171 29.7637C122.796 29.7637 124.909 28.3424 125.876 25.9452V29.1632H134.317V28.8298L134.276 28.8218ZM142.346 3.53179C142.346 1.64203 140.903 0.216702 138.99 0.216702C137.086 0.216702 135.596 1.67306 135.596 3.53179C135.596 5.39052 137.087 6.84687 138.99 6.84687C140.903 6.84687 142.346 5.42155 142.346 3.53179ZM144.566 28.8218C143.018 28.46 142.232 27.921 142.232 25.9692H142.225V8.07602L133.783 10.4707V10.7961L133.833 10.8006C135.66 10.9612 136.16 11.5828 136.16 13.6917V29.1632H144.609V28.8298L144.566 28.8218ZM166.199 28.8218C164.651 28.46 163.865 27.921 163.865 25.9692V8.07602L155.826 10.3917V10.718L155.874 10.723C157.367 10.8781 157.799 11.5352 157.799 13.6537V24.9642C157.301 25.9377 156.367 26.5157 155.235 26.5547C153.4 26.5547 152.389 25.3301 152.389 23.1065V8.07652L143.947 10.4712V10.7961L143.997 10.8006C145.824 10.9607 146.325 11.5823 146.325 13.6917V23.2642C146.32 23.9324 146.379 24.5996 146.5 25.257L146.652 25.9101C147.367 28.4405 149.24 29.7637 152.174 29.7637C154.659 29.7637 156.837 28.2438 157.797 25.8656V29.1687H166.239V28.8353L166.199 28.8218ZM198.996 29.1632V28.8293L198.955 28.8198C197.275 28.437 196.62 27.7153 196.62 26.2459V14.0746C196.62 10.2796 194.463 8.01446 190.849 8.01446C188.215 8.01446 185.993 9.51836 185.138 11.861C184.459 9.37873 182.504 8.01446 179.614 8.01446C177.075 8.01446 175.085 9.33819 174.231 11.5743V8.07752L165.789 10.3742V10.7015L165.84 10.706C167.645 10.8641 168.166 11.5037 168.166 13.5586V29.1632H176.043V28.8298L176.002 28.8198C174.662 28.5085 174.229 27.941 174.229 26.4847V12.5337C174.584 11.7154 175.298 10.746 176.711 10.746C178.466 10.746 179.355 11.9471 179.355 14.3133V29.1632H187.235V28.8298L187.193 28.8198C185.853 28.5085 185.42 27.941 185.42 26.4847V14.0731C185.423 13.609 185.386 13.1455 185.309 12.6878C185.684 11.7985 186.44 10.746 187.911 10.746C189.69 10.746 190.555 11.9126 190.555 14.3133V29.1632H198.996Z" fill="#706F6B"/>
</svg>
